<svg width="512" height="512" viewBox="0 0 128 128" xmlns="http://www.w3.org/2000/svg"><rect width="124" height="124" x="2" y="2" fill="#363d52" stroke="#212532" stroke-width="4" rx="14"/><path fill="#fff" d="M22.927 80.295v3.333c27.405 23.836 54.81 23.836 82.214 0v-3.333Z"/><path fill="#478cbf" d="m22.927 80.295 15.352 1.414c.808.067 1.313.539 1.515 1.414l.404 6.767L53.53 90.9l.808-6.161c.135-.74.64-1.246 1.515-1.515h16.362c.875.27 1.38.774 1.515 1.515l.808 6.161 13.332-1.01.404-6.767c.202-.875.707-1.347 1.515-1.414l15.352-1.414V55.449a98.156 98.156 0 0 0 5.656-8.181 57.344 57.344 0 0 0-8.383-10.908 56.06 56.06 0 0 0-8.282 4.747 46.9 46.9 0 0 0-8.888-6.464c.471-3.434.74-6.868.808-10.302a57.584 57.584 0 0 0-12.423-4.242 75.65 75.65 0 0 0-4.646 8.989 34.822 34.822 0 0 0-9.898 0 75.65 75.65 0 0 0-4.646-8.989 57.584 57.584 0 0 0-12.423 4.242c.067 3.434.337 6.868.808 10.302a46.9 46.9 0 0 0-8.888 6.464 56.06 56.06 0 0 0-8.282-4.747 57.332 57.332 0 0 0-8.383 10.908 98.084 98.084 0 0 0 5.656 8.181Zm0 3.333v3.939c0 27.876 82.113 27.876 82.214 0v-3.939L91.607 84.84l-.505 6.969c-.135.673-.606 1.111-1.414 1.313l-16.362 1.111c-.808 0-1.347-.37-1.616-1.111l-1.01-6.565H57.368l-1.01 6.565c-.27.74-.808 1.111-1.616 1.111L38.38 93.122c-.808-.202-1.28-.64-1.414-1.313l-.505-6.969Z"/><circle fill="#fff" cx="64" cy="58" r="20"/><circle fill="#414042" cx="64" cy="60" r="16"/></svg>
